<svg width="390" height="266" viewBox="0 0 390 266" fill="none" xmlns="http://www.w3.org/2000/svg">
<path d="M390 -61.8646H0V328.135H390V-61.8646Z" fill="url(#paint0_linear_16_735)"/>
<path d="M33.7187 6.79166H32.3646C32.3646 -1.60417 25.4583 -8.375 16.9271 -8.375H16.25V-11.0833C7.17708 -11.3542 0 -18.6667 0 -27.6042C0 -36.5417 7.17708 -43.7187 16.25 -44.125V-46.8333H16.9271C25.4583 -46.8333 32.3646 -53.6042 32.3646 -62H33.7187C33.7187 -53.6042 40.625 -46.8333 49.1562 -46.8333H49.8333V-44.125C58.7708 -43.7187 66.0833 -36.5417 66.0833 -27.6042C66.0833 -18.6667 58.9062 -11.4896 49.8333 -11.0833V-8.375H49.1562C40.7604 -8.375 33.7187 -1.60417 33.7187 6.79166ZM17.6042 -9.72917C24.9167 -9.45834 31.1458 -4.58334 33.0417 2.05208C35.0729 -4.58334 41.1667 -9.45834 48.4792 -9.72917V-12.4375H49.1562C57.6875 -12.4375 64.5937 -19.2083 64.5937 -27.6042C64.5937 -36 57.6875 -42.7708 49.1562 -42.7708H48.4792V-45.4792C41.1667 -45.75 34.9375 -50.625 33.0417 -57.2604C31.0104 -50.625 24.9167 -45.75 17.6042 -45.4792V-42.7708H16.9271C8.39583 -42.6354 1.35417 -35.8646 1.35417 -27.6042C1.35417 -19.2083 8.26042 -12.4375 16.7917 -12.4375H17.6042V-9.72917Z" fill="black" fill-opacity="0.1"/>
<path d="M98.5833 6.79166H97.2292C97.2292 -1.60417 90.3229 -8.375 81.7916 -8.375H81.1146V-11.0833C72.1771 -11.4896 64.8646 -18.6667 64.8646 -27.6042C64.8646 -36.5417 72.0416 -43.7187 81.1146 -44.125V-46.8333H81.7916C90.3229 -46.8333 97.2292 -53.6042 97.2292 -62H98.5833C98.5833 -53.6042 105.49 -46.8333 114.021 -46.8333H114.698V-44.125C123.635 -43.7187 130.948 -36.5417 130.948 -27.6042C130.948 -18.6667 123.771 -11.4896 114.698 -11.0833V-8.375H114.021C105.49 -8.375 98.5833 -1.60417 98.5833 6.79166ZM82.3333 -9.72917C89.6458 -9.45834 95.875 -4.58334 97.7708 2.05208C99.8021 -4.58334 105.896 -9.45834 113.208 -9.72917V-12.4375H113.885C122.417 -12.4375 129.323 -19.2083 129.323 -27.6042C129.323 -36 122.417 -42.7708 113.885 -42.7708H113.208V-45.4792C105.896 -45.75 99.6666 -50.625 97.7708 -57.2604C95.7396 -50.625 89.6458 -45.75 82.3333 -45.4792V-42.7708H81.6562C73.125 -42.7708 66.2187 -36 66.2187 -27.6042C66.2187 -19.2083 73.125 -12.4375 81.6562 -12.4375H82.3333V-9.72917Z" fill="black" fill-opacity="0.1"/>
<path d="M163.313 6.79166H161.958C161.958 -1.60417 155.052 -8.375 146.521 -8.375H145.844V-11.0833C136.906 -11.4896 129.594 -18.6667 129.594 -27.6042C129.594 -36.5417 136.771 -43.7187 145.844 -44.125V-46.8333H146.521C155.052 -46.8333 161.958 -53.6042 161.958 -62H163.313C163.313 -53.6042 170.219 -46.8333 178.75 -46.8333H179.427V-44.125C188.365 -43.7187 195.677 -36.5417 195.677 -27.6042C195.677 -18.6667 188.5 -11.4896 179.427 -11.0833V-8.375H178.75C170.219 -8.375 163.313 -1.60417 163.313 6.79166ZM147.063 -9.72917C154.375 -9.45834 160.604 -4.58334 162.5 2.05208C164.531 -4.58334 170.625 -9.45834 177.937 -9.72917V-12.4375H178.615C187.146 -12.4375 194.052 -19.2083 194.052 -27.6042C194.052 -36 187.146 -42.7708 178.615 -42.7708H177.937V-45.4792C170.625 -45.75 164.396 -50.625 162.5 -57.2604C160.469 -50.625 154.375 -45.75 147.063 -45.4792V-42.7708H146.385C137.854 -42.7708 130.948 -36 130.948 -27.6042C130.948 -19.2083 137.854 -12.4375 146.385 -12.4375H147.063V-9.72917Z" fill="black" fill-opacity="0.1"/>
<path d="M228.042 6.79166H226.687C226.687 -1.60417 219.781 -8.375 211.25 -8.375H210.573V-11.0833C201.635 -11.4896 194.323 -18.6667 194.323 -27.6042C194.323 -36.5417 201.5 -43.7187 210.573 -44.125V-46.8333H211.25C219.781 -46.8333 226.687 -53.6042 226.687 -62H228.042C228.042 -53.6042 234.948 -46.8333 243.479 -46.8333H244.156V-44.125C253.094 -43.7187 260.406 -36.5417 260.406 -27.6042C260.406 -18.6667 253.229 -11.4896 244.156 -11.0833V-8.375H243.479C235.083 -8.375 228.042 -1.60417 228.042 6.79166ZM211.927 -9.72917C219.24 -9.45834 225.469 -4.58334 227.365 2.05208C229.396 -4.58334 235.49 -9.45834 242.802 -9.72917V-12.4375H243.479C252.01 -12.4375 258.917 -19.2083 258.917 -27.6042C258.917 -36 252.01 -42.7708 243.479 -42.7708H242.802V-45.4792C235.49 -45.75 229.26 -50.625 227.365 -57.2604C225.333 -50.625 219.24 -45.75 211.927 -45.4792V-42.7708H211.25C202.719 -42.7708 195.812 -36 195.812 -27.6042C195.812 -19.2083 202.719 -12.4375 211.25 -12.4375H211.927V-9.72917Z" fill="black" fill-opacity="0.1"/>
<path d="M292.906 6.79166H291.552C291.552 -1.60417 284.646 -8.375 276.115 -8.375H275.437V-11.0833C266.5 -11.4896 259.188 -18.6667 259.188 -27.6042C259.188 -36.5417 266.365 -43.7187 275.437 -44.125V-46.8333H276.115C284.646 -46.8333 291.552 -53.6042 291.552 -62H292.906C292.906 -53.6042 299.813 -46.8333 308.344 -46.8333H309.021V-44.125C317.958 -43.7187 325.271 -36.5417 325.271 -27.6042C325.271 -18.6667 318.094 -11.4896 309.021 -11.0833V-8.375H308.344C299.813 -8.375 292.906 -1.60417 292.906 6.79166ZM276.656 -9.72917C283.969 -9.45834 290.198 -4.58334 292.094 2.05208C294.125 -4.58334 300.219 -9.45834 307.531 -9.72917V-12.4375H308.208C316.74 -12.4375 323.646 -19.2083 323.646 -27.6042C323.646 -36 316.74 -42.7708 308.208 -42.7708H307.531V-45.4792C300.219 -45.75 293.99 -50.625 292.094 -57.2604C290.063 -50.625 283.969 -45.75 276.656 -45.4792V-42.7708H275.979C267.448 -42.7708 260.542 -36 260.542 -27.6042C260.542 -19.2083 267.448 -12.4375 275.979 -12.4375H276.656V-9.72917Z" fill="black" fill-opacity="0.1"/>
<path d="M357.635 6.79166H356.281C356.281 -1.60417 349.375 -8.375 340.844 -8.375H340.167V-11.0833C331.229 -11.4896 323.917 -18.6667 323.917 -27.6042C323.917 -36.5417 331.094 -43.7187 340.167 -44.125V-46.8333H340.844C349.375 -46.8333 356.281 -53.6042 356.281 -62H357.635C357.635 -53.6042 364.542 -46.8333 373.073 -46.8333H373.75V-44.125C382.687 -43.7187 390 -36.5417 390 -27.6042C390 -18.6667 382.823 -11.4896 373.75 -11.0833V-8.375H373.073C364.542 -8.375 357.635 -1.60417 357.635 6.79166ZM341.385 -9.72917C348.698 -9.45834 354.927 -4.58334 356.823 2.05208C358.854 -4.58334 364.948 -9.45834 372.26 -9.72917V-12.4375H372.937C381.469 -12.4375 388.375 -19.2083 388.375 -27.6042C388.375 -36 381.469 -42.7708 372.937 -42.7708H372.396V-45.4792C365.083 -45.75 358.854 -50.625 356.958 -57.2604C354.927 -50.625 348.833 -45.75 341.521 -45.4792V-42.7708H340.844C332.312 -42.7708 325.406 -36 325.406 -27.6042C325.406 -19.2083 332.312 -12.4375 340.844 -12.4375H341.521V-9.72917H341.385Z" fill="black" fill-opacity="0.1"/>
<path d="M33.7187 71.1146H32.3646C32.3646 62.7188 25.4583 55.9479 16.9271 55.9479H16.25V53.2396C7.17708 52.8334 0 45.6563 0 36.7188C0 27.7813 7.17708 20.6042 16.25 20.1979V17.4896H16.9271C25.4583 17.4896 32.3646 10.7188 32.3646 2.32294H33.7187C33.7187 10.7188 40.625 17.4896 49.1562 17.4896H49.8333V20.1979C58.7708 20.6042 66.0833 27.7813 66.0833 36.7188C66.0833 45.6563 58.9062 52.8334 49.8333 53.2396V55.9479H49.1562C40.7604 55.9479 33.7187 62.7188 33.7187 71.1146ZM17.6042 54.5938C24.9167 54.8646 31.1458 59.7396 33.0417 66.375C35.0729 59.7396 41.1667 54.8646 48.4792 54.5938V51.8854H49.1562C57.6875 51.8854 64.5937 45.1146 64.5937 36.7188C64.5937 28.3229 57.6875 21.5521 49.1562 21.5521H48.4792V18.8438C41.1667 18.5729 34.9375 13.6979 33.0417 7.06252C31.0104 13.6979 24.9167 18.5729 17.6042 18.8438V21.5521H16.9271C8.39583 21.5521 1.35417 28.3229 1.35417 36.7188C1.35417 45.1146 8.39583 51.8854 16.9271 51.8854H17.6042V54.5938Z" fill="black" fill-opacity="0.1"/>
<path d="M98.5833 71.1146H97.2291C97.0937 62.7188 90.1875 55.9479 81.6562 55.9479H80.9791V53.2396C72.0416 52.8334 64.7291 45.6563 64.7291 36.7188C64.7291 27.7813 71.9062 20.6042 80.9791 20.1979V17.4896H81.6562C90.1875 17.4896 97.0937 10.7188 97.0937 2.32294H98.4479C98.4479 10.7188 105.354 17.4896 113.885 17.4896H114.562V20.1979C123.5 20.6042 130.812 27.7813 130.812 36.7188C130.812 45.6563 123.635 52.8334 114.562 53.2396V55.9479H113.885C105.49 55.9479 98.5833 62.7188 98.5833 71.1146ZM82.3333 54.5938C89.6458 54.8646 95.875 59.7396 97.7708 66.375C99.802 59.7396 105.896 54.8646 113.208 54.5938V51.8854H113.885C122.417 51.8854 129.323 45.1146 129.323 36.7188C129.323 28.3229 122.417 21.5521 113.885 21.5521H113.208V18.8438C105.896 18.5729 99.6666 13.6979 97.7708 7.06252C95.7395 13.6979 89.6458 18.5729 82.3333 18.8438V21.5521H81.6562C73.125 21.5521 66.2187 28.3229 66.2187 36.7188C66.2187 45.1146 73.125 51.8854 81.6562 51.8854H82.3333V54.5938Z" fill="black" fill-opacity="0.1"/>
<path d="M163.313 71.1146H161.958C161.958 62.7188 155.052 55.9479 146.521 55.9479H145.844V53.2396C136.906 52.8334 129.594 45.6563 129.594 36.7188C129.594 27.7813 136.771 20.6042 145.844 20.1979V17.4896H146.521C155.052 17.4896 161.958 10.7188 161.958 2.32294H163.313C163.313 10.7188 170.219 17.4896 178.75 17.4896H179.427V20.1979C188.365 20.6042 195.677 27.7813 195.677 36.7188C195.677 45.6563 188.5 52.8334 179.427 53.2396V55.9479H178.75C170.219 55.9479 163.313 62.7188 163.313 71.1146ZM147.063 54.5938C154.375 54.8646 160.604 59.7396 162.5 66.375C164.531 59.7396 170.625 54.8646 177.937 54.5938V51.8854H178.615C187.146 51.8854 194.052 45.1146 194.052 36.7188C194.052 28.3229 187.146 21.5521 178.615 21.5521H177.937V18.8438C170.625 18.5729 164.396 13.6979 162.5 7.06252C160.469 13.6979 154.375 18.5729 147.063 18.8438V21.5521H146.385C137.854 21.5521 130.948 28.3229 130.948 36.7188C130.948 45.1146 137.854 51.8854 146.385 51.8854H147.063V54.5938Z" fill="black" fill-opacity="0.1"/>
<path d="M228.042 71.1146H226.687C226.687 62.7188 219.781 55.9479 211.25 55.9479H210.573V53.2396C201.635 52.8334 194.323 45.6563 194.323 36.7188C194.323 27.7813 201.5 20.6042 210.573 20.1979V17.4896H211.25C219.781 17.4896 226.687 10.7188 226.687 2.32294H228.042C228.042 10.7188 234.948 17.4896 243.479 17.4896H244.156V20.1979C253.094 20.6042 260.406 27.7813 260.406 36.7188C260.406 45.6563 253.229 52.8334 244.156 53.2396V55.9479H243.479C235.083 55.9479 228.042 62.7188 228.042 71.1146ZM211.927 54.5938C219.24 54.8646 225.469 59.7396 227.365 66.375C229.396 59.7396 235.49 54.8646 242.802 54.5938V51.8854H243.479C252.01 51.8854 258.917 45.1146 258.917 36.7188C258.917 28.3229 252.01 21.5521 243.479 21.5521H242.802V18.8438C235.49 18.5729 229.26 13.6979 227.365 7.06252C225.333 13.6979 219.24 18.5729 211.927 18.8438V21.5521H211.25C202.719 21.5521 195.812 28.3229 195.812 36.7188C195.812 45.1146 202.583 51.8854 211.25 51.8854H211.927V54.5938Z" fill="black" fill-opacity="0.1"/>
<path d="M292.906 71.1146H291.552C291.552 62.7188 284.646 55.9479 276.115 55.9479H275.437V53.2396C266.5 52.8334 259.188 45.6563 259.188 36.7188C259.188 27.7813 266.365 20.6042 275.437 20.1979V17.4896H276.115C284.646 17.4896 291.552 10.7188 291.552 2.32294H292.906C292.906 10.7188 299.813 17.4896 308.344 17.4896H309.021V20.1979C317.958 20.6042 325.271 27.7813 325.271 36.7188C325.271 45.6563 318.094 52.8334 309.021 53.2396V55.9479H308.344C299.813 55.9479 292.906 62.7188 292.906 71.1146ZM276.656 54.5938C283.969 54.8646 290.198 59.7396 292.094 66.375C294.125 59.7396 300.219 54.8646 307.531 54.5938V51.8854H308.208C316.74 51.8854 323.646 45.1146 323.646 36.7188C323.646 28.3229 316.74 21.5521 308.208 21.5521H307.531V18.8438C300.219 18.5729 293.99 13.6979 292.094 7.06252C290.063 13.6979 283.969 18.5729 276.656 18.8438V21.5521H275.979C267.448 21.5521 260.542 28.3229 260.542 36.7188C260.542 45.1146 267.448 51.8854 275.979 51.8854H276.656V54.5938Z" fill="black" fill-opacity="0.1"/>
<path d="M357.635 71.1146H356.281C356.281 62.7188 349.375 55.9479 340.844 55.9479H340.167V53.2396C331.229 52.8334 323.917 45.6563 323.917 36.7188C323.917 27.7813 331.094 20.6042 340.167 20.1979V17.4896H340.844C349.375 17.4896 356.281 10.7188 356.281 2.32294H357.635C357.635 10.7188 364.542 17.4896 373.073 17.4896H373.75V20.1979C382.687 20.6042 390 27.7813 390 36.7188C390 45.6563 382.823 52.8334 373.75 53.2396V55.9479H373.073C364.542 55.9479 357.635 62.7188 357.635 71.1146ZM341.385 54.5938C348.698 54.8646 354.927 59.7396 356.823 66.375C358.854 59.7396 364.948 54.8646 372.26 54.5938V51.8854H372.937C381.469 51.8854 388.375 45.1146 388.375 36.7188C388.375 28.3229 381.469 21.5521 372.937 21.5521H372.396V18.8438C365.083 18.5729 358.854 13.6979 356.958 7.06252C354.927 13.6979 348.833 18.5729 341.521 18.8438V21.5521H340.844C332.312 21.5521 325.406 28.3229 325.406 36.7188C325.406 45.1146 332.177 51.8854 340.708 51.8854H341.385V54.5938Z" fill="black" fill-opacity="0.1"/>
<path d="M33.7187 135.302H32.3646C32.3646 126.906 25.4583 120.135 16.9271 120.135H16.25V117.427C7.3125 117.021 0 109.844 0 100.906C0 91.9687 7.17708 84.7916 16.25 84.3854V81.677H16.9271C25.4583 81.677 32.3646 74.9062 32.3646 66.5104H33.7187C33.7187 74.9062 40.625 81.677 49.1562 81.677H49.8333V84.3854C58.7708 84.7916 66.0833 91.9687 66.0833 100.906C66.0833 109.844 58.9062 117.021 49.8333 117.427V120.135H49.1562C40.7604 120.135 33.7187 126.906 33.7187 135.302ZM17.6042 118.781C24.9167 119.052 31.1458 123.927 33.0417 130.562C35.0729 123.927 41.1667 119.052 48.4792 118.781V116.073H49.1562C57.6875 116.073 64.5937 109.302 64.5937 100.906C64.5937 92.5104 57.6875 85.7395 49.1562 85.7395H48.4792V83.0312C41.1667 82.7604 34.9375 77.8854 33.0417 71.25C31.0104 77.8854 24.9167 82.7604 17.6042 83.0312V85.7395H16.9271C8.39583 85.7395 1.48958 92.5104 1.48958 100.906C1.48958 109.302 8.39583 116.073 16.9271 116.073H17.6042V118.781Z" fill="black" fill-opacity="0.1"/>
<path d="M98.5833 135.302H97.2292C97.2292 126.906 90.3229 120.135 81.7916 120.135H81.1146V117.427C72.1771 117.021 64.8646 109.844 64.8646 100.906C64.8646 91.9687 72.0416 84.7916 81.1146 84.3854V81.677H81.7916C90.3229 81.677 97.2292 74.9062 97.2292 66.5104H98.5833C98.5833 74.9062 105.49 81.677 114.021 81.677H114.698V84.3854C123.635 84.7916 130.948 91.9687 130.948 100.906C130.948 109.844 123.771 117.021 114.698 117.427V120.135H114.021C105.49 120.135 98.5833 126.906 98.5833 135.302ZM82.3333 118.781C89.6458 119.052 95.875 123.927 97.7708 130.562C99.8021 123.927 105.896 119.052 113.208 118.781V116.073H113.885C122.417 116.073 129.323 109.302 129.323 100.906C129.323 92.5104 122.417 85.7395 113.885 85.7395H113.208V83.0312C105.896 82.7604 99.6666 77.8854 97.7708 71.25C95.7396 77.8854 89.6458 82.7604 82.3333 83.0312V85.7395H81.6562C73.125 85.7395 66.2187 92.5104 66.2187 100.906C66.2187 109.302 73.125 116.073 81.6562 116.073H82.3333V118.781Z" fill="black" fill-opacity="0.1"/>
<path d="M163.313 135.302H161.958C161.958 126.906 155.052 120.135 146.521 120.135H145.844V117.427C136.906 117.021 129.594 109.844 129.594 100.906C129.594 91.9687 136.771 84.7916 145.844 84.3854V81.677H146.521C155.052 81.677 161.958 74.9062 161.958 66.5104H163.313C163.313 74.9062 170.219 81.677 178.75 81.677H179.427V84.3854C188.365 84.7916 195.677 91.9687 195.677 100.906C195.677 109.844 188.5 117.021 179.427 117.427V120.135H178.75C170.219 120.135 163.313 126.906 163.313 135.302ZM147.063 118.781C154.375 119.052 160.604 123.927 162.5 130.562C164.531 123.927 170.625 119.052 177.937 118.781V116.073H178.615C187.146 116.073 194.052 109.302 194.052 100.906C194.052 92.5104 187.146 85.7395 178.615 85.7395H177.937V83.0312C170.625 82.7604 164.396 77.8854 162.5 71.25C160.469 77.8854 154.375 82.7604 147.063 83.0312V85.7395H146.385C137.854 85.7395 130.948 92.5104 130.948 100.906C130.948 109.302 137.854 116.073 146.385 116.073H147.063V118.781Z" fill="black" fill-opacity="0.1"/>
<path d="M228.042 135.302H226.687C226.687 126.906 219.781 120.135 211.25 120.135H210.573V117.427C201.635 117.021 194.323 109.844 194.323 100.906C194.323 91.9687 201.5 84.7916 210.573 84.3854V81.677H211.25C219.781 81.677 226.687 74.9062 226.687 66.5104H228.042C228.042 74.9062 234.948 81.677 243.479 81.677H244.156V84.3854C253.094 84.7916 260.406 91.9687 260.406 100.906C260.406 109.844 253.229 117.021 244.156 117.427V120.135H243.479C235.083 120.135 228.042 126.906 228.042 135.302ZM211.927 118.781C219.24 119.052 225.469 123.927 227.365 130.562C229.396 123.927 235.49 119.052 242.802 118.781V116.073H243.479C252.01 116.073 258.917 109.302 258.917 100.906C258.917 92.5104 252.01 85.7395 243.479 85.7395H242.802V83.0312C235.49 82.7604 229.26 77.8854 227.365 71.25C225.333 77.8854 219.24 82.7604 211.927 83.0312V85.7395H211.25C202.719 85.7395 195.812 92.5104 195.812 100.906C195.812 109.302 202.719 116.073 211.25 116.073H211.927V118.781Z" fill="black" fill-opacity="0.1"/>
<path d="M292.906 135.302H291.552C291.552 126.906 284.646 120.135 276.115 120.135H275.437V117.427C266.5 117.021 259.188 109.844 259.188 100.906C259.188 91.9687 266.365 84.7916 275.437 84.3854V81.677H276.115C284.646 81.677 291.552 74.9062 291.552 66.5104H292.906C292.906 74.9062 299.813 81.677 308.344 81.677H309.021V84.3854C317.958 84.7916 325.271 91.9687 325.271 100.906C325.271 109.844 318.094 117.021 309.021 117.427V120.135H308.344C299.813 120.135 292.906 126.906 292.906 135.302ZM276.656 118.781C283.969 119.052 290.198 123.927 292.094 130.562C294.125 123.927 300.219 119.052 307.531 118.781V116.073H308.208C316.74 116.073 323.646 109.302 323.646 100.906C323.646 92.5104 316.74 85.7395 308.208 85.7395H307.531V83.0312C300.219 82.7604 293.99 77.8854 292.094 71.25C290.063 77.8854 283.969 82.7604 276.656 83.0312V85.7395H275.979C267.448 85.7395 260.542 92.5104 260.542 100.906C260.542 109.302 267.448 116.073 275.979 116.073H276.656V118.781Z" fill="black" fill-opacity="0.1"/>
<path d="M357.635 135.302H356.281C356.281 126.906 349.375 120.135 340.844 120.135H340.167V117.427C331.229 117.021 323.917 109.844 323.917 100.906C323.917 91.9687 331.094 84.7916 340.167 84.3854V81.677H340.844C349.375 81.677 356.281 74.9062 356.281 66.5104H357.635C357.635 74.9062 364.542 81.677 373.073 81.677H373.75V84.3854C382.687 84.7916 390 91.9687 390 100.906C390 109.844 382.823 117.021 373.75 117.427V120.135H373.073C364.542 120.135 357.635 126.906 357.635 135.302ZM341.385 118.781C348.698 119.052 354.927 123.927 356.823 130.562C358.854 123.927 364.948 119.052 372.26 118.781V116.073H372.937C381.469 116.073 388.375 109.302 388.375 100.906C388.375 92.5104 381.469 85.7395 372.937 85.7395H372.396V83.0312C365.083 82.7604 358.854 77.8854 356.958 71.25C354.927 77.8854 348.833 82.7604 341.521 83.0312V85.7395H340.844C332.312 85.7395 325.406 92.5104 325.406 100.906C325.406 109.302 332.312 116.073 340.844 116.073H341.521V118.781H341.385Z" fill="black" fill-opacity="0.1"/>
<path d="M33.7187 199.625H32.3646C32.3646 191.229 25.4583 184.458 16.9271 184.458H16.25V181.75C7.3125 181.344 0 174.167 0 165.229C0 156.292 7.17708 149.115 16.25 148.708V146H16.9271C25.4583 146 32.3646 139.229 32.3646 130.833H33.7187C33.7187 139.229 40.625 146 49.1562 146H49.8333V148.708C58.7708 149.115 66.0833 156.292 66.0833 165.229C66.0833 174.167 58.9062 181.344 49.8333 181.75V184.458H49.1562C40.7604 184.458 33.7187 191.229 33.7187 199.625ZM17.6042 183.104C24.9167 183.375 31.1458 188.25 33.0417 194.885C35.0729 188.25 41.1667 183.375 48.4792 183.104V180.396H49.1562C57.6875 180.396 64.5937 173.625 64.5937 165.229C64.5937 156.833 57.6875 150.063 49.1562 150.063H48.4792V147.354C41.1667 147.083 34.9375 142.208 33.0417 135.573C31.0104 142.208 24.9167 147.083 17.6042 147.354V150.063H16.9271C8.39583 150.063 1.48958 156.833 1.48958 165.229C1.48958 173.625 8.39583 180.396 16.9271 180.396H17.6042V183.104Z" fill="black" fill-opacity="0.1"/>
<path d="M98.5833 199.625H97.2292C97.2292 191.229 90.3229 184.458 81.7916 184.458H81.1146V181.75C72.1771 181.344 64.8646 174.167 64.8646 165.229C64.8646 156.292 72.0416 149.115 81.1146 148.708V146H81.7916C90.3229 146 97.2292 139.229 97.2292 130.833H98.5833C98.5833 139.229 105.49 146 114.021 146H114.698V148.708C123.635 149.115 130.948 156.292 130.948 165.229C130.948 174.167 123.771 181.344 114.698 181.75V184.458H114.021C105.49 184.458 98.5833 191.229 98.5833 199.625ZM82.3333 183.104C89.6458 183.375 95.875 188.25 97.7708 194.885C99.8021 188.25 105.896 183.375 113.208 183.104V180.396H113.885C122.417 180.396 129.323 173.625 129.323 165.229C129.323 156.833 122.417 150.063 113.885 150.063H113.208V147.354C105.896 147.083 99.6666 142.208 97.7708 135.573C95.7396 142.208 89.6458 147.083 82.3333 147.354V150.063H81.6562C73.125 150.063 66.2187 156.833 66.2187 165.229C66.2187 173.625 73.125 180.396 81.6562 180.396H82.3333V183.104Z" fill="black" fill-opacity="0.1"/>
<path d="M163.313 199.625H161.958C161.958 191.229 155.052 184.458 146.521 184.458H145.844V181.75C136.906 181.344 129.594 174.167 129.594 165.229C129.594 156.292 136.771 149.115 145.844 148.708V146H146.521C155.052 146 161.958 139.229 161.958 130.833H163.313C163.313 139.229 170.219 146 178.75 146H179.427V148.708C188.365 149.115 195.677 156.292 195.677 165.229C195.677 174.167 188.5 181.344 179.427 181.75V184.458H178.75C170.219 184.458 163.313 191.229 163.313 199.625ZM147.063 183.104C154.375 183.375 160.604 188.25 162.5 194.885C164.531 188.25 170.625 183.375 177.937 183.104V180.396H178.615C187.146 180.396 194.052 173.625 194.052 165.229C194.052 156.833 187.146 150.063 178.615 150.063H177.937V147.354C170.625 147.083 164.396 142.208 162.5 135.573C160.469 142.208 154.375 147.083 147.063 147.354V150.063H146.385C137.854 150.063 130.948 156.833 130.948 165.229C130.948 173.625 137.854 180.396 146.385 180.396H147.063V183.104Z" fill="black" fill-opacity="0.1"/>
<path d="M228.042 199.625H226.687C226.687 191.229 219.781 184.458 211.25 184.458H210.573V181.75C201.635 181.344 194.323 174.167 194.323 165.229C194.323 156.292 201.5 149.115 210.573 148.708V146H211.25C219.781 146 226.687 139.229 226.687 130.833H228.042C228.042 139.229 234.948 146 243.479 146H244.156V148.708C253.094 149.115 260.406 156.292 260.406 165.229C260.406 174.167 253.229 181.344 244.156 181.75V184.458H243.479C235.083 184.458 228.042 191.229 228.042 199.625ZM211.927 183.104C219.24 183.375 225.469 188.25 227.365 194.885C229.396 188.25 235.49 183.375 242.802 183.104V180.396H243.479C252.01 180.396 258.917 173.625 258.917 165.229C258.917 156.833 252.01 150.063 243.479 150.063H242.802V147.354C235.49 147.083 229.26 142.208 227.365 135.573C225.333 142.208 219.24 147.083 211.927 147.354V150.063H211.25C202.719 150.063 195.812 156.833 195.812 165.229C195.812 173.625 202.719 180.396 211.25 180.396H211.927V183.104Z" fill="black" fill-opacity="0.1"/>
<path d="M292.906 199.625H291.552C291.552 191.229 284.646 184.458 276.115 184.458H275.437V181.75C266.5 181.344 259.188 174.167 259.188 165.229C259.188 156.292 266.365 149.115 275.437 148.708V146H276.115C284.646 146 291.552 139.229 291.552 130.833H292.906C292.906 139.229 299.813 146 308.344 146H309.021V148.708C317.958 149.115 325.271 156.292 325.271 165.229C325.271 174.167 318.094 181.344 309.021 181.75V184.458H308.344C299.813 184.458 292.906 191.229 292.906 199.625ZM276.656 183.104C283.969 183.375 290.198 188.25 292.094 194.885C294.125 188.25 300.219 183.375 307.531 183.104V180.396H308.208C316.74 180.396 323.646 173.625 323.646 165.229C323.646 156.833 316.74 150.063 308.208 150.063H307.531V147.354C300.219 147.083 293.99 142.208 292.094 135.573C290.063 142.208 283.969 147.083 276.656 147.354V150.063H275.979C267.448 150.063 260.542 156.833 260.542 165.229C260.542 173.625 267.448 180.396 275.979 180.396H276.656V183.104Z" fill="black" fill-opacity="0.1"/>
<path d="M357.635 199.625H356.281C356.281 191.229 349.375 184.458 340.844 184.458H340.167V181.75C331.229 181.344 323.917 174.167 323.917 165.229C323.917 156.292 331.094 149.115 340.167 148.708V146H340.844C349.375 146 356.281 139.229 356.281 130.833H357.635C357.635 139.229 364.542 146 373.073 146H373.75V148.708C382.687 149.115 390 156.292 390 165.229C390 174.167 382.823 181.344 373.75 181.75V184.458H373.073C364.542 184.458 357.635 191.229 357.635 199.625ZM341.385 183.104C348.698 183.375 354.927 188.25 356.823 194.885C358.854 188.25 364.948 183.375 372.26 183.104V180.396H372.937C381.469 180.396 388.375 173.625 388.375 165.229C388.375 156.833 381.469 150.063 372.937 150.063H372.396V147.354C365.083 147.083 358.854 142.208 356.958 135.573C354.927 142.208 348.833 147.083 341.521 147.354V150.063H340.844C332.312 150.063 325.406 156.833 325.406 165.229C325.406 173.625 332.312 180.396 340.844 180.396H341.521V183.104H341.385Z" fill="black" fill-opacity="0.1"/>
<path d="M33.7187 263.812H32.3646C32.3646 255.417 25.4583 248.646 16.9271 248.646H16.25V245.937C7.3125 245.531 0 238.354 0 229.417C0 220.479 7.17708 213.302 16.25 212.896V210.187H16.9271C25.4583 210.187 32.3646 203.417 32.3646 195.021H33.7187C33.7187 203.417 40.625 210.187 49.1562 210.187H49.8333V212.896C58.7708 213.302 66.0833 220.479 66.0833 229.417C66.0833 238.354 58.9062 245.531 49.8333 245.937V248.646H49.1562C40.7604 248.646 33.7187 255.552 33.7187 263.812ZM17.6042 247.427C24.9167 247.698 31.1458 252.573 33.0417 259.208C35.0729 252.573 41.1667 247.698 48.4792 247.427V244.719H49.1562C57.6875 244.719 64.5937 237.948 64.5937 229.552C64.5937 221.156 57.6875 214.385 49.1562 214.385H48.4792V211.677C41.1667 211.406 34.9375 206.531 33.0417 199.896C31.0104 206.531 24.9167 211.406 17.6042 211.677V214.385H16.9271C8.39583 214.385 1.35417 221.156 1.35417 229.552C1.35417 237.948 8.26042 244.719 16.7917 244.719H17.6042V247.427Z" fill="black" fill-opacity="0.1"/>
<path d="M98.5833 263.812H97.2292C97.2292 255.417 90.3229 248.646 81.7916 248.646H81.1146V245.937C72.1771 245.531 64.8646 238.354 64.8646 229.417C64.8646 220.479 72.0416 213.302 81.1146 212.896V210.187H81.7916C90.3229 210.187 97.2292 203.417 97.2292 195.021H98.5833C98.5833 203.417 105.49 210.187 114.021 210.187H114.698V212.896C123.635 213.302 130.948 220.479 130.948 229.417C130.948 238.354 123.771 245.531 114.698 245.937V248.646H114.021C105.49 248.646 98.5833 255.552 98.5833 263.812ZM82.3333 247.427C89.6458 247.698 95.875 252.573 97.7708 259.208C99.8021 252.573 105.896 247.698 113.208 247.427V244.719H113.885C122.417 244.719 129.323 237.948 129.323 229.552C129.323 221.156 122.417 214.385 113.885 214.385H113.208V211.677C105.896 211.406 99.6666 206.531 97.7708 199.896C95.7396 206.531 89.6458 211.406 82.3333 211.677V214.385H81.6562C73.125 214.385 66.2187 221.156 66.2187 229.552C66.2187 237.948 73.125 244.719 81.6562 244.719H82.3333V247.427Z" fill="black" fill-opacity="0.1"/>
<path d="M163.313 263.812H161.958C161.958 255.417 155.052 248.646 146.521 248.646H145.844V245.937C136.906 245.531 129.594 238.354 129.594 229.417C129.594 220.479 136.771 213.302 145.844 212.896V210.187H146.521C155.052 210.187 161.958 203.417 161.958 195.021H163.313C163.313 203.417 170.219 210.187 178.75 210.187H179.427V212.896C188.365 213.302 195.677 220.479 195.677 229.417C195.677 238.354 188.5 245.531 179.427 245.937V248.646H178.75C170.219 248.646 163.313 255.552 163.313 263.812ZM147.063 247.427C154.375 247.698 160.604 252.573 162.5 259.208C164.531 252.573 170.625 247.698 177.937 247.427V244.719H178.615C187.146 244.719 194.052 237.948 194.052 229.552C194.052 221.156 187.146 214.385 178.615 214.385H177.937V211.677C170.625 211.406 164.396 206.531 162.5 199.896C160.469 206.531 154.375 211.406 147.063 211.677V214.385H146.385C137.854 214.385 130.948 221.156 130.948 229.552C130.948 237.948 137.854 244.719 146.385 244.719H147.063V247.427Z" fill="black" fill-opacity="0.1"/>
<path d="M228.042 263.812H226.687C226.687 255.417 219.781 248.646 211.25 248.646H210.573V245.937C201.635 245.531 194.323 238.354 194.323 229.417C194.323 220.479 201.5 213.302 210.573 212.896V210.187H211.25C219.781 210.187 226.687 203.417 226.687 195.021H228.042C228.042 203.417 234.948 210.187 243.479 210.187H244.156V212.896C253.094 213.302 260.406 220.479 260.406 229.417C260.406 238.354 253.229 245.531 244.156 245.937V248.646H243.479C235.083 248.646 228.042 255.552 228.042 263.812ZM211.927 247.427C219.24 247.698 225.469 252.573 227.365 259.208C229.396 252.573 235.49 247.698 242.802 247.427V244.719H243.479C252.01 244.719 258.917 237.948 258.917 229.552C258.917 221.156 252.01 214.385 243.479 214.385H242.802V211.677C235.49 211.406 229.26 206.531 227.365 199.896C225.333 206.531 219.24 211.406 211.927 211.677V214.385H211.25C202.719 214.385 195.812 221.156 195.812 229.552C195.812 237.948 202.719 244.719 211.25 244.719H211.927V247.427Z" fill="black" fill-opacity="0.1"/>
<path d="M292.906 263.812H291.552C291.552 255.417 284.646 248.646 276.115 248.646H275.437V245.937C266.5 245.531 259.188 238.354 259.188 229.417C259.188 220.479 266.365 213.302 275.437 212.896V210.187H276.115C284.646 210.187 291.552 203.417 291.552 195.021H292.906C292.906 203.417 299.813 210.187 308.344 210.187H309.021V212.896C317.958 213.302 325.271 220.479 325.271 229.417C325.271 238.354 318.094 245.531 309.021 245.937V248.646H308.344C299.813 248.646 292.906 255.552 292.906 263.812ZM276.656 247.427C283.969 247.698 290.198 252.573 292.094 259.208C294.125 252.573 300.219 247.698 307.531 247.427V244.719H308.208C316.74 244.719 323.646 237.948 323.646 229.552C323.646 221.156 316.74 214.385 308.208 214.385H307.531V211.677C300.219 211.406 293.99 206.531 292.094 199.896C290.063 206.531 283.969 211.406 276.656 211.677V214.385H275.979C267.448 214.385 260.542 221.156 260.542 229.552C260.542 237.948 267.448 244.719 275.979 244.719H276.656V247.427Z" fill="black" fill-opacity="0.1"/>
<path d="M357.635 263.812H356.281C356.281 255.417 349.375 248.646 340.844 248.646H340.167V245.937C331.229 245.531 323.917 238.354 323.917 229.417C323.917 220.479 331.094 213.302 340.167 212.896V210.187H340.844C349.375 210.187 356.281 203.417 356.281 195.021H357.635C357.635 203.417 364.542 210.187 373.073 210.187H373.75V212.896C382.687 213.302 390 220.479 390 229.417C390 238.354 382.823 245.531 373.75 245.937V248.646H373.073C364.542 248.646 357.635 255.552 357.635 263.812ZM341.385 247.427C348.698 247.698 354.927 252.573 356.823 259.208C358.854 252.573 364.948 247.698 372.26 247.427V244.719H372.937C381.469 244.719 388.375 237.948 388.375 229.552C388.375 221.156 381.469 214.385 372.937 214.385H372.396V211.677C365.083 211.406 358.854 206.531 356.958 199.896C354.927 206.531 348.833 211.406 341.521 211.677V214.385H340.844C332.312 214.385 325.406 221.156 325.406 229.552C325.406 237.948 332.312 244.719 340.844 244.719H341.521V247.427H341.385Z" fill="black" fill-opacity="0.1"/>
<path d="M33.7187 328.135H32.3646C32.3646 319.74 25.4583 312.969 16.9271 312.969H16.25V310.26C7.3125 309.854 0 302.677 0 293.74C0 284.802 7.17708 277.625 16.25 277.219V274.51H16.9271C25.4583 274.51 32.3646 267.74 32.3646 259.344H33.7187C33.7187 267.74 40.625 274.51 49.1562 274.51H49.8333V277.219C58.7708 277.625 66.0833 284.802 66.0833 293.74C66.0833 302.677 58.9062 309.854 49.8333 310.26V312.969H49.1562C40.7604 312.969 33.7187 319.74 33.7187 328.135ZM17.6042 311.615C24.9167 311.885 31.1458 316.76 33.0417 323.396C35.0729 316.76 41.1667 311.885 48.4792 311.615V308.906H49.1562C57.6875 308.906 64.5937 302.135 64.5937 293.74C64.5937 285.344 57.6875 278.573 49.1562 278.573H48.4792V275.865C41.1667 275.594 34.9375 270.719 33.0417 264.083C31.0104 270.719 24.9167 275.594 17.6042 275.865V278.573H16.9271C8.39583 278.573 1.48958 285.344 1.48958 293.74C1.48958 302.135 8.39583 308.906 16.9271 308.906H17.6042V311.615Z" fill="black" fill-opacity="0.1"/>
<path d="M98.5833 328.135H97.2292C97.2292 319.74 90.3229 312.969 81.7916 312.969H81.1146V310.26C72.1771 309.854 64.8646 302.677 64.8646 293.74C64.8646 284.802 72.0416 277.625 81.1146 277.219V274.51H81.7916C90.3229 274.51 97.2292 267.74 97.2292 259.344H98.5833C98.5833 267.74 105.49 274.51 114.021 274.51H114.698V277.219C123.635 277.625 130.948 284.802 130.948 293.74C130.948 302.677 123.771 309.854 114.698 310.26V312.969H114.021C105.49 312.969 98.5833 319.74 98.5833 328.135ZM82.3333 311.615C89.6458 311.885 95.875 316.76 97.7708 323.396C99.8021 316.76 105.896 311.885 113.208 311.615V308.906H113.885C122.417 308.906 129.323 302.135 129.323 293.74C129.323 285.344 122.417 278.573 113.885 278.573H113.208V275.865C105.896 275.594 99.6666 270.719 97.7708 264.083C95.7396 270.719 89.6458 275.594 82.3333 275.865V278.573H81.6562C73.125 278.573 66.2187 285.344 66.2187 293.74C66.2187 302.135 73.125 308.906 81.6562 308.906H82.3333V311.615Z" fill="black" fill-opacity="0.1"/>
<path d="M163.313 328.135H161.958C161.958 319.74 155.052 312.969 146.521 312.969H145.844V310.26C136.906 309.854 129.594 302.677 129.594 293.74C129.594 284.802 136.771 277.625 145.844 277.219V274.51H146.521C155.052 274.51 161.958 267.74 161.958 259.344H163.313C163.313 267.74 170.219 274.51 178.75 274.51H179.427V277.219C188.365 277.625 195.677 284.802 195.677 293.74C195.677 302.677 188.5 309.854 179.427 310.26V312.969H178.75C170.219 312.969 163.313 319.74 163.313 328.135ZM147.063 311.615C154.375 311.885 160.604 316.76 162.5 323.396C164.531 316.76 170.625 311.885 177.937 311.615V308.906H178.615C187.146 308.906 194.052 302.135 194.052 293.74C194.052 285.344 187.146 278.573 178.615 278.573H177.937V275.865C170.625 275.594 164.396 270.719 162.5 264.083C160.469 270.719 154.375 275.594 147.063 275.865V278.573H146.385C137.854 278.573 130.948 285.344 130.948 293.74C130.948 302.135 137.854 308.906 146.385 308.906H147.063V311.615Z" fill="black" fill-opacity="0.1"/>
<path d="M228.042 328.135H226.687C226.687 319.74 219.781 312.969 211.25 312.969H210.573V310.26C201.635 309.854 194.323 302.677 194.323 293.74C194.323 284.802 201.5 277.625 210.573 277.219V274.51H211.25C219.781 274.51 226.687 267.74 226.687 259.344H228.042C228.042 267.74 234.948 274.51 243.479 274.51H244.156V277.219C253.094 277.625 260.406 284.802 260.406 293.74C260.406 302.677 253.229 309.854 244.156 310.26V312.969H243.479C235.083 312.969 228.042 319.74 228.042 328.135ZM211.927 311.615C219.24 311.885 225.469 316.76 227.365 323.396C229.396 316.76 235.49 311.885 242.802 311.615V308.906H243.479C252.01 308.906 258.917 302.135 258.917 293.74C258.917 285.344 252.01 278.573 243.479 278.573H242.802V275.865C235.49 275.594 229.26 270.719 227.365 264.083C225.333 270.719 219.24 275.594 211.927 275.865V278.573H211.25C202.719 278.573 195.812 285.344 195.812 293.74C195.812 302.135 202.719 308.906 211.25 308.906H211.927V311.615Z" fill="black" fill-opacity="0.1"/>
<path d="M292.906 328.135H291.552C291.552 319.74 284.646 312.969 276.115 312.969H275.437V310.26C266.5 309.854 259.188 302.677 259.188 293.74C259.188 284.802 266.365 277.625 275.437 277.219V274.51H276.115C284.646 274.51 291.552 267.74 291.552 259.344H292.906C292.906 267.74 299.813 274.51 308.344 274.51H309.021V277.219C317.958 277.625 325.271 284.802 325.271 293.74C325.271 302.677 318.094 309.854 309.021 310.26V312.969H308.344C299.813 312.969 292.906 319.74 292.906 328.135ZM276.656 311.615C283.969 311.885 290.198 316.76 292.094 323.396C294.125 316.76 300.219 311.885 307.531 311.615V308.906H308.208C316.74 308.906 323.646 302.135 323.646 293.74C323.646 285.344 316.74 278.573 308.208 278.573H307.531V275.865C300.219 275.594 293.99 270.719 292.094 264.083C290.063 270.719 283.969 275.594 276.656 275.865V278.573H275.979C267.448 278.573 260.542 285.344 260.542 293.74C260.542 302.135 267.448 308.906 275.979 308.906H276.656V311.615Z" fill="black" fill-opacity="0.1"/>
<path d="M357.635 328.135H356.281C356.281 319.74 349.375 312.969 340.844 312.969H340.167V310.26C331.229 309.854 323.917 302.677 323.917 293.74C323.917 284.802 331.094 277.625 340.167 277.219V274.51H340.844C349.375 274.51 356.281 267.74 356.281 259.344H357.635C357.635 267.74 364.542 274.51 373.073 274.51H373.75V277.219C382.687 277.625 390 284.802 390 293.74C390 302.677 382.823 309.854 373.75 310.26V312.969H373.073C364.542 312.969 357.635 319.74 357.635 328.135ZM341.385 311.615C348.698 311.885 354.927 316.76 356.823 323.396C358.854 316.76 364.948 311.885 372.26 311.615V308.906H372.937C381.469 308.906 388.375 302.135 388.375 293.74C388.375 285.344 381.469 278.573 372.937 278.573H372.396V275.865C365.083 275.594 358.854 270.719 356.958 264.083C354.927 270.719 348.833 275.594 341.521 275.865V278.573H340.844C332.312 278.573 325.406 285.344 325.406 293.74C325.406 302.135 332.312 308.906 340.844 308.906H341.521V311.615H341.385Z" fill="black" fill-opacity="0.1"/>
<path d="M381.875 244.854V236.323H359.802V229.823H355.062C356.687 227.927 357.771 225.354 357.771 222.646C357.771 219.125 356.146 216.146 351 214.115C347.885 212.896 346.937 211.135 346.667 210.187C347.208 210.187 347.479 209.917 347.479 209.646C347.479 209.375 347.208 209.24 346.667 209.104L346.531 207.073C346.667 207.073 346.802 206.937 346.802 206.802C346.802 206.667 346.667 206.667 346.531 206.531L346.396 204.635C347.073 204.771 347.75 204.771 348.427 204.635C349.51 204.229 350.323 203.552 350.729 202.604C350.323 202.875 349.917 203.146 349.375 203.417C347.344 204.094 345.042 203.01 344.365 200.979C343.958 199.896 344.094 198.812 344.5 198C343.281 199.083 342.74 200.708 343.281 202.333C343.687 203.687 344.771 204.5 345.99 204.771L345.854 206.802C345.719 206.802 345.583 206.937 345.583 207.073C345.583 207.208 345.719 207.208 345.854 207.344L345.719 209.24C345.312 209.375 344.906 209.51 344.906 209.781C344.906 210.052 345.312 210.323 345.854 210.323C345.583 211.135 344.5 212.896 341.521 214.25C339.896 214.927 338.677 215.604 337.729 216.417L337.052 195.562H337.594L340.167 191.635H336.917L336.24 170.646H336.781L338.948 166.719H336.104L335.833 156.562C336.646 155.75 337.323 154.667 337.323 153.312C337.323 151.281 334.344 149.656 333.396 149.115C333.667 148.979 333.802 148.844 333.802 148.437C333.802 148.167 333.531 147.896 333.26 147.76V145.323C333.396 145.187 333.531 145.052 333.531 144.917C333.531 144.781 333.396 144.646 333.26 144.51V143.292C334.073 143.292 334.75 142.885 335.021 142.208C334.75 142.344 334.344 142.479 334.073 142.479C332.99 142.479 332.042 141.531 332.042 140.448C332.042 140.042 332.177 139.635 332.312 139.365C331.635 139.635 331.094 140.448 331.094 141.26C331.094 142.344 331.906 143.156 332.854 143.292V144.51C332.719 144.646 332.583 144.781 332.583 144.917C332.583 145.052 332.719 145.187 332.854 145.323V147.76C332.583 147.896 332.312 148.031 332.312 148.437C332.312 148.708 332.448 148.979 332.719 149.115C331.635 149.656 328.792 151.281 328.792 153.312C328.792 154.531 329.333 155.75 330.281 156.562L330.01 166.719H327.167L329.333 170.646H329.875L329.198 191.635H326.354L328.927 195.562H329.469L328.792 216.552H328.656C327.031 212.49 323.24 209.51 318.771 208.969V208.833C318.771 208.156 317.958 207.615 317.552 207.479L317.417 200.437C317.417 200.302 317.281 200.302 317.281 200.302C317.146 200.302 317.146 200.437 317.146 200.437L317.01 207.479C316.604 207.75 315.792 208.292 315.792 208.833V208.969C312.542 209.375 309.562 211.135 307.667 213.573V199.083C307.667 197.865 308.615 194.75 306.854 192.042C304.01 187.573 297.375 185.677 294.125 183.24C294.125 183.104 294.26 182.969 294.26 182.698C294.26 182.156 293.854 181.615 293.448 181.479L293.177 174.302C293.177 174.167 293.042 174.031 292.906 174.031C292.771 174.031 292.635 174.167 292.635 174.302L292.365 181.479C291.823 181.615 291.552 182.156 291.552 182.698C291.552 182.833 291.552 183.104 291.687 183.24C288.573 185.542 282.615 187.437 279.5 191.229L278.687 166.854H279.229L282.344 162.115H278.417L277.604 136.521H278.281L280.99 131.781H277.469L277.062 119.458C278.146 118.51 278.823 117.156 278.823 115.531C278.823 113.094 275.302 111.062 273.948 110.521C274.219 110.385 274.49 110.115 274.49 109.708C274.49 109.302 274.219 109.031 273.812 108.896V105.917C273.948 105.781 274.083 105.646 274.083 105.51C274.083 105.24 273.948 105.104 273.812 105.104V103.615C274.76 103.615 275.573 103.073 275.979 102.26C275.573 102.396 275.167 102.531 274.76 102.531C273.406 102.531 272.323 101.448 272.323 100.094C272.323 99.552 272.458 99.1458 272.729 98.7395C271.917 99.1458 271.24 99.9583 271.24 101.042C271.24 102.26 272.187 103.344 273.406 103.479V104.969C273.271 105.104 273.135 105.24 273.135 105.375C273.135 105.646 273.271 105.781 273.406 105.781V108.76C273 108.896 272.729 109.167 272.729 109.573C272.729 109.979 273 110.115 273.271 110.385C272.052 111.062 268.396 112.958 268.396 115.396C268.396 116.885 269.073 118.375 270.156 119.323L269.75 131.646H266.229L268.937 136.385H269.615L268.802 161.979H264.875L267.99 166.719H268.531L267.854 187.437C265.417 182.833 258.646 180.26 255.125 177.146C255.26 176.875 255.26 176.74 255.26 176.469C255.26 175.656 254.719 175.115 254.042 174.844L253.771 164.823C253.771 164.687 253.635 164.552 253.5 164.552C253.365 164.552 253.229 164.687 253.229 164.823L252.958 174.844C252.281 175.115 251.74 175.656 251.74 176.469C251.74 176.74 251.74 176.875 251.875 177.146C248.625 179.99 242.937 182.292 239.958 186.083L239.281 166.448H239.687L241.854 163.198H239.146L238.604 145.865H239.01L240.771 142.615H238.469L238.198 134.219C238.875 133.542 239.417 132.594 239.417 131.51C239.417 129.885 236.979 128.531 236.167 128.125C236.302 127.99 236.437 127.854 236.437 127.583C236.437 127.312 236.302 127.177 236.031 127.042V125.01C236.167 125.01 236.302 124.875 236.302 124.74C236.302 124.604 236.167 124.469 236.031 124.469V123.385C236.708 123.385 237.25 122.979 237.521 122.437C237.25 122.573 236.979 122.708 236.708 122.708C235.76 122.708 235.083 121.896 235.083 121.083C235.083 120.812 235.219 120.406 235.354 120.135C234.812 120.406 234.406 120.948 234.406 121.76C234.406 122.573 235.083 123.25 235.896 123.385V124.469C235.76 124.469 235.625 124.604 235.625 124.74C235.625 124.875 235.76 125.01 235.896 125.01V127.042C235.625 127.177 235.49 127.312 235.49 127.583C235.49 127.854 235.625 127.99 235.76 128.125C234.948 128.531 232.51 129.885 232.51 131.51C232.51 132.594 232.917 133.542 233.729 134.219L233.458 142.615H231.156L232.917 145.865H233.323L232.781 163.198H230.073L232.24 166.448H232.646L232.24 178.229C232.24 178.094 232.104 177.823 232.104 177.687C227.5 166.177 210.302 160.49 202.448 152.771C202.719 152.365 202.854 151.823 202.854 151.417C202.854 150.198 202.042 149.115 200.823 148.708L200.552 135.844H200.687C205.292 135.844 209.219 133.271 211.25 129.479C209.625 130.427 207.594 130.969 205.562 130.969C199.198 130.969 193.917 125.823 193.917 119.323C193.917 117.021 194.594 114.854 195.677 113.094C191.615 114.99 188.771 119.052 188.771 123.927C188.771 130.156 193.51 135.167 199.469 135.708L199.198 148.708C197.979 149.115 197.167 150.062 197.167 151.417C197.167 151.958 197.302 152.365 197.573 152.771C189.719 160.354 172.656 166.042 167.917 177.687C167.781 177.958 167.781 178.094 167.781 178.365L167.375 166.448H167.781L169.948 163.198H167.24L166.698 145.865H167.104L168.865 142.615H166.562L166.292 134.219C166.969 133.542 167.51 132.594 167.51 131.51C167.51 129.885 165.073 128.531 164.26 128.125C164.396 127.99 164.531 127.854 164.531 127.583C164.531 127.312 164.396 127.177 164.125 127.042V125.01C164.26 125.01 164.396 124.875 164.396 124.74C164.396 124.604 164.26 124.469 164.125 124.469V123.385C164.802 123.385 165.344 122.979 165.615 122.437C165.344 122.573 165.073 122.708 164.802 122.708C163.854 122.708 163.177 121.896 163.177 121.083C163.177 120.812 163.312 120.406 163.448 120.135C162.906 120.406 162.5 120.948 162.5 121.76C162.5 122.573 163.177 123.25 163.99 123.385V124.469C163.854 124.469 163.719 124.604 163.719 124.74C163.719 124.875 163.854 125.01 163.99 125.01V127.042C163.719 127.177 163.583 127.312 163.583 127.583C163.583 127.854 163.719 127.99 163.854 128.125C163.042 128.531 160.604 129.885 160.604 131.51C160.604 132.594 161.01 133.542 161.823 134.219L161.552 142.615H159.25L161.01 145.865H161.417L160.875 163.198H158.167L160.333 166.448H160.74L160.062 186.083C157.083 182.292 151.396 179.99 148.146 177.146C148.281 176.875 148.281 176.74 148.281 176.469C148.281 175.656 147.74 175.115 147.062 174.844L146.792 164.823C146.792 164.687 146.656 164.552 146.521 164.552C146.385 164.552 146.25 164.687 146.25 164.823L145.979 174.844C145.302 175.115 144.76 175.656 144.76 176.469C144.76 176.74 144.76 176.875 144.896 177.146C141.375 180.26 134.604 182.833 132.167 187.437L131.49 166.719H132.031L135.146 161.979H131.219L130.406 136.385H131.083L133.792 131.646H130.271L129.865 119.323C130.948 118.375 131.625 117.021 131.625 115.396C131.625 112.958 128.104 110.927 126.75 110.385C127.021 110.25 127.292 109.979 127.292 109.573C127.292 109.167 127.021 108.896 126.615 108.76V105.781C126.75 105.646 126.885 105.51 126.885 105.375C126.885 105.104 126.75 104.969 126.615 104.969V103.479C127.562 103.479 128.375 102.937 128.781 102.125C128.375 102.26 127.969 102.396 127.562 102.396C126.208 102.396 125.125 101.312 125.125 99.9583C125.125 99.4166 125.26 99.0104 125.531 98.6041C124.719 99.0104 124.042 99.8229 124.042 100.906C124.042 102.125 124.99 103.208 126.208 103.344V104.833C126.073 104.969 125.937 105.104 125.937 105.24C125.937 105.51 126.073 105.646 126.208 105.646V108.625C125.937 108.76 125.667 109.031 125.667 109.437C125.667 109.844 125.937 109.979 126.208 110.25C124.99 110.927 121.333 112.823 121.333 115.26C121.333 116.75 122.01 118.24 123.094 119.187L122.687 131.51H119.167L121.875 136.25H122.552L121.74 161.844H117.812L120.927 166.583H121.469L120.656 190.958C117.542 187.031 111.719 185.271 108.469 182.969C108.469 182.833 108.604 182.698 108.604 182.427C108.604 181.885 108.198 181.344 107.792 181.208L107.521 174.031C107.521 173.896 107.385 173.76 107.25 173.76C107.115 173.76 106.979 173.896 106.979 174.031L106.708 181.208C106.167 181.344 105.896 181.885 105.896 182.427C105.896 182.562 105.896 182.833 106.031 182.969C102.646 185.406 96.0104 187.302 93.302 191.771C91.5416 194.479 92.4895 197.729 92.4895 198.812V213.302C90.4583 210.865 87.6145 209.104 84.3645 208.698V208.562C84.3645 207.885 83.552 207.344 83.1458 207.208L83.0104 200.167C83.0104 200.031 82.8749 200.031 82.8749 200.031C82.7395 200.031 82.7395 200.167 82.7395 200.167L82.6041 207.208C82.1979 207.479 81.3854 208.021 81.3854 208.562V208.698C76.7812 209.24 72.9895 212.354 71.3645 216.552L71.0937 195.427H71.6354L74.2083 191.5H70.9583L70.2812 170.51H70.8229L72.9895 166.583H70.1458L69.8749 156.427C70.6874 155.615 71.3645 154.531 71.3645 153.177C71.3645 151.146 68.3854 149.521 67.4374 148.979C67.7083 148.844 67.8437 148.708 67.8437 148.302C67.8437 148.031 67.5729 147.76 67.302 147.625V145.187C67.4374 145.052 67.5729 144.917 67.5729 144.781C67.5729 144.646 67.4374 144.51 67.302 144.375V143.156C68.1145 143.156 68.7916 142.75 69.0624 142.073C68.7916 142.208 68.3854 142.344 68.1145 142.344C67.0312 142.344 66.0833 141.396 66.0833 140.312C66.0833 139.906 66.2187 139.5 66.3541 139.229C65.677 139.5 65.1354 140.312 65.1354 141.125C65.1354 142.208 65.9479 143.021 66.8958 143.156V144.375C66.7604 144.51 66.6249 144.646 66.6249 144.781C66.6249 144.917 66.7604 145.052 66.8958 145.187V147.625C66.6249 147.76 66.3541 147.896 66.3541 148.302C66.3541 148.573 66.4895 148.844 66.7604 148.979C65.677 149.521 62.8333 151.146 62.8333 153.177C62.8333 154.396 63.3749 155.615 64.3229 156.427L64.052 166.583H61.2083L63.3749 170.51H63.9166L63.2395 191.5H59.9895L62.5624 195.427H63.1041L62.2916 216.281C61.3437 215.469 60.1249 214.792 58.4999 214.115C55.3854 212.896 54.4374 211 54.1666 210.187C54.7083 210.187 54.9791 209.917 54.9791 209.646C54.9791 209.375 54.5729 209.24 54.1666 209.104L54.0312 207.073C54.1666 207.073 54.302 206.937 54.302 206.802C54.302 206.667 54.1666 206.667 54.0312 206.531L53.8958 204.635C54.5729 204.771 55.2499 204.771 56.0624 204.635C57.1458 204.229 57.9583 203.552 58.3645 202.604C57.9583 202.875 57.552 203.146 57.0104 203.417C54.9791 204.094 52.677 203.01 51.9999 200.979C51.5937 199.896 51.7291 198.812 52.1354 198C50.9166 199.083 50.3749 200.708 50.9166 202.333C51.3229 203.687 52.4062 204.5 53.6249 204.771L53.4895 206.802C53.3541 206.802 53.2187 206.937 53.2187 207.073C53.2187 207.208 53.3541 207.208 53.4895 207.344L53.3541 209.24C52.9479 209.375 52.5416 209.51 52.5416 209.781C52.5416 210.052 52.9479 210.323 53.4895 210.323C53.2187 211.135 52.1354 213.031 49.1562 214.25C44.0104 216.281 42.3854 219.26 42.3854 222.781C42.3854 225.49 43.4687 228.062 45.0937 229.958H40.3541V236.458H18.6874V277.219H384.177C402.052 266.521 364.542 256.094 381.875 244.854Z" fill="url(#paint1_radial_16_735)"/>
<path d="M382.823 267.604V261.51H366.979V256.906H363.594C364.812 255.552 365.625 253.656 365.625 251.76C365.625 249.187 364.542 247.156 360.75 245.667C358.583 244.719 357.771 243.5 357.635 242.823C358.042 242.823 358.312 242.687 358.312 242.417C358.312 242.281 358.042 242.146 357.771 242.01V240.656C357.906 240.656 357.906 240.521 357.906 240.521C357.906 240.385 357.771 240.385 357.771 240.385V239.031C358.312 239.167 358.719 239.167 359.26 239.031C360.073 238.76 360.615 238.219 360.885 237.542C360.615 237.812 360.344 237.948 359.937 238.083C358.448 238.625 356.823 237.812 356.281 236.323C356.01 235.646 356.146 234.833 356.417 234.156C355.604 234.833 355.198 236.052 355.604 237.271C355.875 238.219 356.687 238.896 357.635 239.031L357.5 240.521C357.365 240.521 357.229 240.656 357.229 240.656C357.229 240.792 357.365 240.792 357.5 240.792L357.365 242.146C357.094 242.146 356.823 242.281 356.823 242.552C356.823 242.823 357.094 242.958 357.5 242.958C357.229 243.5 356.552 244.854 354.385 245.802C353.167 246.208 352.354 246.75 351.677 247.427L351.271 232.396H351.677L353.573 229.552H351.271L350.729 214.385H351.135L352.76 211.542H350.729L350.458 204.229C351.135 203.687 351.542 202.875 351.542 201.927C351.542 200.573 349.375 199.354 348.698 198.948C348.833 198.812 348.969 198.677 348.969 198.542C348.969 198.271 348.833 198.135 348.562 198.135V196.375C348.698 196.375 348.698 196.24 348.698 196.104C348.698 195.969 348.562 195.833 348.562 195.833V194.885C349.104 194.885 349.646 194.615 349.781 194.073C349.51 194.208 349.375 194.208 349.104 194.208C348.292 194.208 347.615 193.531 347.615 192.719C347.615 192.448 347.75 192.177 347.885 191.906C347.344 192.177 347.073 192.719 347.073 193.26C347.073 194.073 347.615 194.615 348.292 194.75V195.698C348.156 195.698 348.156 195.833 348.156 195.969C348.156 196.104 348.292 196.24 348.292 196.24V198C348.156 198.135 347.885 198.271 347.885 198.406C347.885 198.542 348.021 198.812 348.156 198.812C347.479 199.219 345.312 200.302 345.312 201.792C345.312 202.74 345.719 203.552 346.396 204.094L346.125 211.406H344.094L345.719 214.25H346.125L345.583 229.417H343.281L345.177 232.26H345.583L345.042 247.427H344.906C343.687 244.448 340.979 242.417 337.729 242.01V241.875C337.729 241.469 337.187 241.062 336.781 240.927L336.646 235.917C336.646 235.917 336.646 235.781 336.51 235.781C336.375 235.781 336.375 235.781 336.375 235.917L336.24 240.927C335.969 241.062 335.292 241.469 335.292 241.875V242.01C332.854 242.281 330.823 243.5 329.469 245.396V234.969C329.469 234.156 330.146 231.854 328.927 229.823C326.896 226.708 322.156 225.219 319.719 223.458C319.719 223.323 319.854 223.187 319.854 223.052C319.854 222.646 319.583 222.24 319.177 222.104L319.042 216.958C319.042 216.823 318.906 216.823 318.906 216.823C318.771 216.823 318.771 216.958 318.771 216.958L318.635 222.104C318.229 222.24 317.958 222.646 317.958 223.052C317.958 223.187 317.958 223.323 318.094 223.458C315.792 225.083 311.594 226.437 309.292 229.281L308.75 211.812H309.156L311.458 208.427H308.615L308.073 190.01H308.615L310.51 186.625H307.937L307.667 177.823C308.479 177.146 308.885 176.062 308.885 174.979C308.885 173.219 306.312 171.865 305.365 171.323C305.5 171.187 305.771 171.052 305.771 170.781C305.771 170.51 305.635 170.24 305.365 170.24V168.073C305.5 167.937 305.635 167.937 305.635 167.802C305.635 167.667 305.5 167.531 305.365 167.396V166.312C306.042 166.312 306.583 165.906 306.99 165.365C306.719 165.5 306.448 165.635 306.177 165.635C305.229 165.635 304.417 164.823 304.417 163.875C304.417 163.469 304.552 163.198 304.687 162.927C304.01 163.198 303.604 163.875 303.604 164.552C303.604 165.5 304.281 166.177 305.229 166.312V167.396C305.094 167.531 304.958 167.531 304.958 167.802C304.958 167.937 305.094 168.073 305.229 168.073V170.24C304.958 170.375 304.823 170.51 304.823 170.781C304.823 171.052 304.958 171.187 305.229 171.323C304.281 171.729 301.708 173.219 301.708 174.979C301.708 176.062 302.25 177.146 302.927 177.823L302.656 186.625H300.219L302.115 190.01H302.656L302.115 208.427H299.271L301.573 211.812H301.979L301.573 226.708C299.812 223.458 294.937 221.562 292.365 219.26C292.365 219.125 292.5 218.99 292.5 218.719C292.5 218.177 292.094 217.771 291.687 217.5L291.552 210.323C291.552 210.187 291.417 210.187 291.417 210.187C291.281 210.187 291.281 210.323 291.281 210.323L291.146 217.5C290.604 217.635 290.333 218.042 290.333 218.719C290.333 218.854 290.333 218.99 290.469 219.26C288.167 221.292 283.969 222.917 281.802 225.625L281.396 211.542H281.667L283.156 209.24H280.312L279.906 196.781H280.177L281.531 194.479H279.771L279.635 188.521C280.177 188.115 280.448 187.437 280.448 186.625C280.448 185.406 278.687 184.458 278.146 184.187C278.281 184.052 278.417 184.052 278.417 183.781C278.417 183.646 278.281 183.51 278.146 183.375V181.885C278.281 181.885 278.281 181.75 278.281 181.615C278.281 181.479 278.146 181.479 278.146 181.344V180.667C278.552 180.667 278.958 180.396 279.229 179.99C279.094 180.125 278.823 180.125 278.687 180.125C278.01 180.125 277.469 179.583 277.469 178.906C277.469 178.635 277.469 178.5 277.604 178.229C277.198 178.365 276.927 178.906 276.927 179.312C276.927 179.99 277.333 180.396 278.01 180.531V181.344C277.875 181.344 277.875 181.479 277.875 181.615C277.875 181.75 277.875 181.75 278.01 181.885V183.375C277.875 183.375 277.74 183.51 277.74 183.781C277.74 183.917 277.875 184.052 278.01 184.187C277.469 184.458 275.708 185.406 275.708 186.625C275.708 187.437 275.979 188.115 276.521 188.521L276.385 194.479H274.625L275.979 196.781H276.25L275.844 209.24H273.948L275.437 211.542H275.708L275.437 219.937C275.437 219.802 275.437 219.667 275.302 219.531C271.917 211.271 259.594 207.073 254.042 201.656C254.177 201.385 254.312 200.979 254.312 200.708C254.312 199.76 253.635 199.083 252.823 198.812L252.552 189.469H252.687C255.937 189.469 258.917 187.573 260.271 184.865C259.052 185.542 257.698 185.948 256.208 185.948C251.604 185.948 247.812 182.156 247.812 177.552C247.812 175.927 248.354 174.437 249.167 173.083C246.187 174.437 244.156 177.417 244.156 180.802C244.156 185.271 247.542 188.792 251.875 189.333L251.604 198.677C250.792 198.948 250.115 199.625 250.115 200.573C250.115 200.979 250.25 201.25 250.385 201.521C244.698 207.073 232.51 211.135 229.125 219.396C229.125 219.531 228.99 219.667 228.99 219.937L228.719 211.406H228.99L230.479 209.104H228.583L228.177 196.646H228.448L229.802 194.344H228.042L227.906 188.385C228.448 187.979 228.719 187.302 228.719 186.49C228.719 185.271 226.958 184.323 226.417 184.052C226.552 183.917 226.687 183.917 226.687 183.646C226.687 183.51 226.552 183.375 226.417 183.24V181.75C226.552 181.75 226.552 181.615 226.552 181.479C226.552 181.344 226.417 181.344 226.417 181.208V180.531C226.823 180.531 227.229 180.26 227.5 179.854C227.365 179.99 227.094 179.99 226.958 179.99C226.281 179.99 225.74 179.448 225.74 178.771C225.74 178.5 225.875 178.365 225.875 178.094C225.469 178.229 225.198 178.771 225.198 179.177C225.198 179.854 225.604 180.26 226.281 180.396V181.208C226.146 181.208 226.146 181.344 226.146 181.479C226.146 181.615 226.146 181.615 226.281 181.75V183.24C226.146 183.24 226.01 183.375 226.01 183.646C226.01 183.781 226.146 183.917 226.281 184.052C225.74 184.323 223.979 185.271 223.979 186.49C223.979 187.302 224.25 187.979 224.792 188.385L224.656 194.344H222.896L224.25 196.646H224.521L224.115 209.104H222.083L223.573 211.406H223.844L223.437 225.49C221.271 222.781 217.208 221.156 214.906 219.125C214.906 218.99 215.042 218.854 215.042 218.583C215.042 218.042 214.635 217.635 214.229 217.365L214.094 210.187C214.094 210.052 213.958 210.052 213.958 210.052C213.823 210.052 213.823 210.187 213.823 210.187L213.687 217.365C213.146 217.5 212.875 217.906 212.875 218.583C212.875 218.719 212.875 218.854 213.01 219.125C210.437 221.427 205.562 223.187 203.802 226.573L203.396 211.677H203.802L206.104 208.292H203.26L202.719 189.875H203.26L205.156 186.49H202.719L202.448 177.687C203.26 177.01 203.667 175.927 203.667 174.844C203.667 173.083 201.094 171.729 200.146 171.187C200.281 171.052 200.552 170.917 200.552 170.646C200.552 170.375 200.417 170.24 200.146 170.104V167.937C200.281 167.802 200.417 167.802 200.417 167.667C200.417 167.531 200.281 167.396 200.146 167.26V166.177C200.823 166.177 201.365 165.771 201.771 165.229C201.5 165.365 201.229 165.5 200.958 165.5C200.01 165.5 199.198 164.687 199.198 163.74C199.198 163.333 199.333 163.062 199.469 162.792C198.792 163.062 198.385 163.74 198.385 164.417C198.385 165.365 199.062 166.042 200.01 166.177V167.26C199.875 167.396 199.74 167.396 199.74 167.667C199.74 167.802 199.875 167.937 200.01 167.937V170.104C199.74 170.24 199.604 170.375 199.604 170.646C199.604 170.917 199.74 171.052 200.01 171.187C199.062 171.594 196.49 173.083 196.49 174.844C196.49 175.927 197.031 177.01 197.708 177.687L197.437 186.49H194.865L196.76 189.875H197.302L196.76 208.292H193.917L196.219 211.677H196.625L196.083 229.146C193.917 226.302 189.583 224.948 187.281 223.323C187.281 223.187 187.417 223.052 187.417 222.917C187.417 222.51 187.146 222.104 186.74 221.969L186.604 216.823C186.604 216.687 186.469 216.687 186.469 216.687C186.333 216.687 186.333 216.823 186.333 216.823L186.198 221.969C185.792 222.104 185.521 222.51 185.521 222.917C185.521 223.052 185.521 223.187 185.656 223.323C183.219 225.083 178.479 226.437 176.448 229.687C175.229 231.719 175.906 233.885 175.906 234.833V245.26C174.552 243.5 172.385 242.281 170.083 241.875V241.74C170.083 241.333 169.542 240.927 169.135 240.792L169 235.781C169 235.646 169 235.646 168.865 235.646C168.729 235.646 168.729 235.646 168.729 235.781L168.594 240.792C168.323 240.927 167.646 241.333 167.646 241.74V241.875C164.396 242.281 161.552 244.448 160.469 247.562L159.927 232.26H160.333L162.229 229.417H159.927L159.385 214.25H159.792L161.417 211.406H159.385L159.115 204.094C159.792 203.552 160.198 202.74 160.198 201.792C160.198 200.437 158.031 199.219 157.354 198.812C157.49 198.677 157.625 198.542 157.625 198.406C157.625 198.135 157.49 198 157.219 198V196.24C157.354 196.24 157.354 196.104 157.354 195.969C157.354 195.833 157.219 195.698 157.219 195.698V194.75C157.76 194.75 158.302 194.479 158.437 193.937C158.167 194.073 158.031 194.073 157.76 194.073C156.948 194.073 156.271 193.396 156.271 192.583C156.271 192.312 156.406 192.042 156.542 191.771C156 192.042 155.729 192.583 155.729 193.125C155.729 193.937 156.271 194.479 156.948 194.615V195.562C156.813 195.562 156.813 195.698 156.813 195.833C156.813 195.969 156.948 196.104 156.948 196.104V197.865C156.813 198 156.542 198.135 156.542 198.271C156.542 198.406 156.677 198.677 156.813 198.677C156.135 199.083 153.969 200.167 153.969 201.656C153.969 202.604 154.375 203.417 155.052 203.958L154.781 211.271H152.75L154.375 214.115H154.781L154.24 229.281H151.937L153.833 232.125H154.24L153.833 247.156C153.156 246.615 152.208 246.073 151.125 245.531C148.958 244.583 148.146 243.365 148.01 242.687C148.417 242.687 148.688 242.552 148.688 242.281C148.688 242.146 148.417 242.01 148.146 241.875V240.521C148.281 240.521 148.281 240.385 148.281 240.385C148.281 240.25 148.146 240.25 148.146 240.25V238.896C148.688 239.031 149.094 239.031 149.635 238.896C150.448 238.625 150.99 238.083 151.26 237.406C150.99 237.677 150.719 237.812 150.313 237.948C148.823 238.49 147.198 237.677 146.656 236.187C146.385 235.51 146.521 234.698 146.792 234.021C145.979 234.698 145.573 235.917 145.979 237.135C146.25 238.083 147.063 238.76 148.01 238.896L147.875 240.385C147.74 240.385 147.604 240.521 147.604 240.521C147.604 240.656 147.74 240.656 147.875 240.656L147.74 242.01C147.469 242.01 147.198 242.146 147.198 242.417C147.198 242.687 147.469 242.823 147.875 242.823C147.604 243.365 146.927 244.719 144.76 245.667C140.969 247.156 139.885 249.187 139.885 251.76C139.885 253.792 140.698 255.552 141.917 256.906H138.531V261.51H121.469V290.896H384.312C397.312 283.177 370.229 275.729 382.823 267.604Z" fill="url(#paint2_radial_16_735)"/>
<path d="M204.073 259.208V255.823H195.135V253.25H193.24C193.917 252.437 194.323 251.49 194.323 250.271C194.323 248.781 193.646 247.698 191.615 246.885C190.396 246.344 189.99 245.667 189.854 245.26C189.99 245.26 190.26 245.125 190.26 244.99C190.26 244.854 190.125 244.854 189.99 244.719V243.906C189.99 243.906 190.125 243.906 190.125 243.771C190.125 243.771 190.125 243.771 189.99 243.635V242.823C190.26 242.823 190.531 242.958 190.802 242.823C191.208 242.687 191.615 242.417 191.75 242.01C191.615 242.146 191.479 242.281 191.208 242.281C190.396 242.552 189.448 242.146 189.177 241.333C189.042 240.927 189.042 240.521 189.313 240.115C188.771 240.521 188.635 241.198 188.771 241.875C188.906 242.417 189.448 242.687 189.854 242.823V243.635C189.719 243.635 189.719 243.635 189.719 243.771C189.719 243.771 189.719 243.906 189.854 243.906V244.719C189.719 244.719 189.583 244.854 189.583 244.99C189.583 245.125 189.719 245.26 189.99 245.26C189.854 245.531 189.448 246.344 188.229 246.885C187.552 247.156 187.01 247.427 186.74 247.833L186.469 239.437H186.604L187.688 237.813H186.333L186.063 229.281H186.333L187.281 227.656H186.063L185.927 223.594C186.333 223.323 186.469 222.781 186.469 222.24C186.469 221.427 185.25 220.75 184.844 220.615C184.979 220.615 184.979 220.479 184.979 220.344C184.979 220.208 184.844 220.073 184.708 220.073V219.125L184.844 218.99C184.844 218.854 184.844 218.854 184.708 218.854V218.312C184.979 218.312 185.25 218.177 185.385 217.906C185.25 218.042 185.115 218.042 184.979 218.042C184.573 218.042 184.167 217.635 184.167 217.229C184.167 217.094 184.167 216.958 184.302 216.823C184.031 216.958 183.76 217.229 183.76 217.635C183.76 218.042 184.031 218.448 184.438 218.448V218.99L184.302 219.125C184.302 219.26 184.302 219.26 184.438 219.26V220.208C184.302 220.208 184.302 220.344 184.302 220.479C184.302 220.615 184.438 220.615 184.438 220.75C184.031 221.021 182.813 221.562 182.813 222.375C182.813 222.917 183.083 223.323 183.354 223.729L183.219 227.792H182L182.948 229.417H183.219L182.948 237.948H181.594L182.677 239.573H182.813L182.542 248.104C181.865 246.479 180.375 245.26 178.479 244.99C178.479 244.719 178.208 244.583 177.938 244.448V241.604C177.938 241.604 177.938 241.469 177.802 241.469C177.802 241.469 177.667 241.469 177.667 241.604V244.448C177.531 244.583 177.125 244.719 177.125 244.99C175.771 245.125 174.552 245.802 173.875 246.885V241.062C173.875 240.656 174.281 239.302 173.604 238.219C172.521 236.458 169.813 235.646 168.458 234.698C168.458 234.698 168.458 234.563 168.458 234.427C168.458 234.156 168.323 234.021 168.052 233.885L167.917 231.042C167.917 231.042 167.917 230.906 167.781 230.906C167.781 230.906 167.646 230.906 167.646 231.042L167.51 233.885C167.24 234.021 167.104 234.156 167.104 234.427C167.104 234.563 167.104 234.562 167.104 234.698C165.885 235.646 163.448 236.323 162.229 237.948L161.958 228.063H162.229L163.448 226.167H161.823L161.552 215.875H161.823L162.906 213.979H161.552L161.417 208.969C161.823 208.562 162.094 208.021 162.094 207.344C162.094 206.396 160.604 205.583 160.198 205.313C160.333 205.313 160.333 205.177 160.333 205.042C160.333 204.906 160.198 204.771 160.063 204.771V203.552C160.198 203.552 160.198 203.417 160.198 203.417C160.198 203.281 160.198 203.281 160.063 203.281V202.74C160.469 202.74 160.74 202.469 160.875 202.198C160.74 202.333 160.604 202.333 160.333 202.333C159.792 202.333 159.385 201.927 159.385 201.385C159.385 201.25 159.385 200.979 159.521 200.844C159.115 200.979 158.979 201.385 158.979 201.792C158.979 202.333 159.385 202.74 159.792 202.74V203.417C159.656 203.417 159.656 203.552 159.656 203.552C159.656 203.687 159.656 203.688 159.792 203.688V204.906C159.656 204.906 159.521 205.042 159.521 205.177C159.521 205.312 159.656 205.448 159.656 205.448C159.115 205.719 157.76 206.531 157.76 207.479C157.76 208.156 158.031 208.698 158.438 209.104L158.302 214.115H156.948L158.031 216.01H158.302L158.031 226.302H156.406L157.625 228.198H157.896L157.625 236.594C156.677 234.698 153.969 233.75 152.479 232.396C152.479 232.26 152.479 232.26 152.479 232.125C152.479 231.854 152.208 231.583 151.938 231.448L151.802 227.385C151.802 227.385 151.802 227.25 151.667 227.25C151.667 227.25 151.531 227.25 151.531 227.385L151.396 231.448C151.125 231.583 150.854 231.719 150.854 232.125C150.854 232.26 150.854 232.26 150.854 232.396C149.5 233.479 147.198 234.427 145.979 236.052L145.708 228.063H145.844L146.656 226.708H145.573L145.302 219.667H145.438L146.115 218.312H146.25L146.115 214.927C146.385 214.656 146.656 214.25 146.656 213.844C146.656 213.167 145.708 212.625 145.302 212.49C145.438 212.49 145.438 212.354 145.438 212.219C145.438 212.083 145.302 212.083 145.302 211.948V211.135L145.438 211C145.438 211 145.438 210.865 145.302 210.865V210.458C145.573 210.458 145.844 210.323 145.844 210.052C145.708 210.052 145.573 210.187 145.573 210.187C145.167 210.187 144.896 209.917 144.896 209.51C144.896 209.375 144.896 209.24 145.031 209.104C144.76 209.24 144.625 209.51 144.625 209.781C144.625 210.188 144.896 210.458 145.167 210.458V210.865L145.031 211C145.031 211 145.031 211.135 145.167 211.135V211.948C145.031 211.948 145.031 212.083 145.031 212.219C145.031 212.354 145.031 212.354 145.167 212.49C144.76 212.625 143.813 213.167 143.813 213.844C143.813 214.25 143.948 214.656 144.354 214.927L144.219 218.312H143.271L143.948 219.667H144.083L143.813 226.708H142.729L143.542 228.063H143.677L143.542 232.802V232.667C141.646 228.062 134.74 225.76 131.625 222.646C131.76 222.51 131.76 222.24 131.76 222.104C131.76 221.562 131.354 221.156 130.948 221.021L130.813 215.875C130.813 215.875 130.813 215.875 130.948 215.875C132.844 215.875 134.469 214.792 135.146 213.302C134.469 213.708 133.656 213.844 132.844 213.844C130.271 213.844 128.104 211.677 128.104 209.104C128.104 208.156 128.375 207.344 128.781 206.667C127.156 207.479 125.938 209.104 125.938 211C125.938 213.437 127.833 215.469 130.271 215.74L130.135 221.021C129.729 221.156 129.323 221.562 129.323 222.104C129.323 222.375 129.458 222.51 129.458 222.646C126.344 225.76 119.438 228.062 117.542 232.667C117.542 232.802 117.542 232.802 117.406 232.937L117.271 228.063H117.406L118.219 226.708H117.135L116.865 219.667H117L117.677 218.312H116.729L116.594 214.927C116.865 214.656 117.135 214.25 117.135 213.844C117.135 213.167 116.188 212.625 115.781 212.49C115.917 212.49 115.917 212.354 115.917 212.219C115.917 212.083 115.781 212.083 115.781 211.948V211.135L115.917 211C115.917 211 115.917 210.865 115.781 210.865V210.458C116.052 210.458 116.323 210.323 116.323 210.052C116.188 210.052 116.052 210.187 116.052 210.187C115.646 210.187 115.375 209.917 115.375 209.51C115.375 209.375 115.375 209.24 115.51 209.104C115.24 209.24 115.104 209.51 115.104 209.781C115.104 210.188 115.375 210.458 115.646 210.458V210.865L115.51 211C115.51 211 115.51 211.135 115.646 211.135V211.948C115.51 211.948 115.51 212.083 115.51 212.219C115.51 212.354 115.51 212.354 115.646 212.49C115.24 212.625 114.292 213.167 114.292 213.844C114.292 214.25 114.427 214.656 114.833 214.927L114.698 218.312H113.75L114.427 219.667H114.563L114.292 226.708H113.75L114.563 228.063H114.698L114.427 236.052C113.208 234.562 110.906 233.615 109.552 232.531C109.552 232.396 109.552 232.396 109.552 232.26C109.552 231.99 109.281 231.719 109.01 231.583L108.875 227.521C108.875 227.521 108.875 227.385 108.74 227.385C108.74 227.385 108.604 227.385 108.604 227.521L108.469 231.583C108.198 231.719 107.927 231.854 107.927 232.26C107.927 232.396 107.927 232.396 107.927 232.531C106.438 233.75 103.729 234.833 102.781 236.729L102.51 228.333H102.781L104 226.437H102.917L102.646 216.146H102.917L104 214.25H102.646L102.51 209.24C102.917 208.833 103.188 208.292 103.188 207.615C103.188 206.667 101.698 205.854 101.292 205.583C101.427 205.583 101.427 205.448 101.427 205.313C101.427 205.177 101.292 205.042 101.156 205.042V203.823C101.292 203.823 101.292 203.688 101.292 203.688C101.292 203.552 101.292 203.552 101.156 203.552V203.01C101.563 203.01 101.833 202.74 101.969 202.469C101.833 202.604 101.698 202.604 101.427 202.604C100.885 202.604 100.479 202.198 100.479 201.656C100.479 201.521 100.479 201.25 100.615 201.115C100.208 201.25 100.073 201.656 100.073 202.062C100.073 202.604 100.479 203.01 100.885 203.01V203.688C100.75 203.688 100.75 203.823 100.75 203.823C100.75 203.958 100.75 203.958 100.885 203.958V205.177C100.75 205.177 100.615 205.312 100.615 205.448C100.615 205.583 100.75 205.719 100.75 205.719C100.208 205.99 98.8542 206.802 98.8542 207.75C98.8542 208.427 99.125 208.969 99.5313 209.375L99.3959 214.385H98.0417L99.125 216.281H99.3959L99.125 226.573H97.5L98.7188 228.469H98.9896L98.7188 238.354C97.5 236.729 95.0625 236.052 93.8438 235.104C93.8438 235.104 93.8438 234.969 93.8438 234.833C93.8438 234.563 93.7084 234.427 93.4375 234.292V230.635C93.4375 230.635 93.4375 230.5 93.3021 230.5C93.3021 230.5 93.1667 230.5 93.1667 230.635L93.0313 233.479C92.8959 233.615 92.625 233.75 92.625 234.021C92.625 234.156 92.625 234.156 92.625 234.292C91.2709 235.24 88.5625 236.052 87.4792 237.813C86.8021 238.896 87.2084 240.25 87.2084 240.656V246.479C86.3959 245.531 85.3125 244.719 83.9584 244.583C83.9584 244.313 83.6875 244.177 83.4167 244.042V241.198C83.4167 241.198 83.4167 241.062 83.2813 241.062C83.2813 241.062 83.1459 241.063 83.1459 241.198V244.042C83.0105 244.177 82.6042 244.313 82.6042 244.583C80.7084 244.854 79.2188 246.073 78.5417 247.698L78.2709 239.031H78.4063L79.4896 237.406H78.1355L77.8646 228.875H78.1355L79.0834 227.25H77.8646L77.7292 223.187C78.1355 222.917 78.2709 222.375 78.2709 221.833C78.2709 221.021 77.0521 220.344 76.6459 220.208C76.7813 220.208 76.7813 220.073 76.7813 219.938C76.7813 219.802 76.6459 219.667 76.6459 219.667V218.719L76.7813 218.583C76.7813 218.448 76.7813 218.448 76.6459 218.448V217.906C76.9167 217.906 77.1875 217.771 77.323 217.5C77.1875 217.635 77.0521 217.635 76.9167 217.635C76.5105 217.635 76.1042 217.229 76.1042 216.823C76.1042 216.688 76.1042 216.552 76.2396 216.417C75.9688 216.552 75.698 216.823 75.698 217.229C75.698 217.635 75.9688 218.042 76.375 218.042V218.583L76.2396 218.719C76.2396 218.854 76.2396 218.854 76.375 218.854V219.802C76.2396 219.802 76.2396 219.937 76.2396 220.073C76.2396 220.208 76.375 220.208 76.375 220.344C75.9688 220.615 74.75 221.156 74.75 221.969C74.75 222.51 75.0209 222.917 75.2917 223.323L75.1563 227.385H73.9375L74.8855 229.01H75.1563L74.8855 237.542H73.5313L74.6146 239.167H74.75L74.4792 247.562C74.073 247.292 73.5313 246.885 72.9896 246.615C71.7709 246.073 71.3646 245.396 71.2292 244.99C71.3646 244.99 71.6355 244.854 71.6355 244.719C71.6355 244.583 71.5 244.583 71.3646 244.448V243.635C71.3646 243.635 71.5 243.635 71.5 243.5C71.5 243.5 71.5 243.5 71.3646 243.365V242.552C71.6355 242.552 71.9063 242.688 72.1771 242.552C72.5834 242.417 72.9896 242.146 73.125 241.74C72.9896 241.875 72.8542 242.01 72.5834 242.01C71.7709 242.281 70.823 241.875 70.5521 241.062C70.4167 240.656 70.4167 240.25 70.6875 239.844C70.1459 240.25 70.0105 240.927 70.1459 241.604C70.2813 242.146 70.823 242.417 71.2292 242.552V243.365C71.0938 243.365 71.0938 243.365 71.0938 243.5C71.0938 243.5 71.0938 243.635 71.2292 243.635V244.448C71.0938 244.448 70.9584 244.583 70.9584 244.719C70.9584 244.854 71.0938 244.99 71.3646 244.99C71.2292 245.26 70.823 246.073 69.6042 246.615C67.573 247.427 66.8959 248.646 66.8959 250C66.8959 251.083 67.3021 252.167 67.9792 252.979H66.0834V255.552H57.1459V272.073H204.885C212.198 268.01 197.031 263.813 204.073 259.208Z" fill="url(#paint3_radial_16_735)"/>
<defs>
<linearGradient id="paint0_linear_16_735" x1="195" y1="-202.021" x2="195" y2="305.646" gradientUnits="userSpaceOnUse">
<stop stop-color="#3F4C7A"/>
<stop offset="0.953125" stop-color="#201F4C"/>
</linearGradient>
<radialGradient id="paint1_radial_16_735" cx="0" cy="0" r="1" gradientUnits="userSpaceOnUse" gradientTransform="translate(191.453 101.502) scale(197.229 197.229)">
<stop stop-color="#3F4C7A"/>
<stop offset="1" stop-color="#201F4C"/>
</radialGradient>
<radialGradient id="paint2_radial_16_735" cx="0" cy="0" r="1" gradientUnits="userSpaceOnUse" gradientTransform="translate(245.809 164.46) scale(114.399 114.399)">
<stop stop-color="#3F4C7A"/>
<stop offset="0.973958" stop-color="#201F4C"/>
</radialGradient>
<radialGradient id="paint3_radial_16_735" cx="0" cy="0" r="1" gradientUnits="userSpaceOnUse" gradientTransform="translate(127.082 201.302) scale(68.5949 62.2721)">
<stop stop-color="#3F4C7A"/>
<stop offset="1" stop-color="#201F4C"/>
</radialGradient>
</defs>
</svg>
